# xmcd CD database file
#
# Track frame offsets:
#	150
#	21916
#	33720
#	70774
#	90515
#	125093
#	139133
#	167474
#	192747
#	216215
#
# Disc length: 3199 seconds
#
# Revision: 0
# Processed by: cddbd v1.5.2PL0 Copyright (c) Steve Scherf et al.
# Submitted via: CDex 1.51
#
DISCID=930c7d0a
DTITLE=Georg Riedel med vänner - Hemligheter på vägen
DYEAR=2007
DGENRE=Jazz
TTITLE0=Det vi saknar
TTITLE1=Hemligheter på vägen
TTITLE2=Etude för sommarvind
TTITLE3=I grannkommunens källarvåning
TTITLE4=Tag mig, håll mig
TTITLE5=Han som vaknade av sång över taken
TTITLE6=Tidens framfart
TTITLE7=Telegram för fullmånen
TTITLE8=Det är vackrast när det skymmer
TTITLE9=Dit jag längtar så
EXTD=YEAR: 2007
EXTT0=
EXTT1=
EXTT2=
EXTT3=
EXTT4=
EXTT5=
EXTT6=
EXTT7=
EXTT8=
EXTT9=
PLAYORDER=
